<svg width="223" height="362" viewBox="0 0 223 362" fill="none" xmlns="http://www.w3.org/2000/svg">
<path d="M34.4558 335.256C56.965 321.482 101.296 303.241 147.002 266.386C192.707 229.532 209.256 183.72 262.982 150.984C316.708 118.248 385.102 112.36 415.632 102.704" stroke="#1B1B1B"/>
<path d="M37.7741 352.319C60.2833 338.545 104.615 320.304 150.32 283.45C196.025 246.595 212.575 200.784 266.301 168.047C320.027 135.311 388.42 129.424 418.95 119.768" stroke="#1B1B1B"/>
<path d="M41.0922 369.384C63.6014 355.61 107.933 337.369 153.638 300.514C199.344 263.66 215.893 217.848 269.619 185.112C323.345 152.376 391.738 146.488 422.268 136.832" stroke="#1B1B1B"/>
<path d="M44.4106 386.447C66.9198 372.673 111.251 354.432 156.957 317.578C202.662 280.723 219.211 234.912 272.937 202.175C326.663 169.439 395.057 163.552 425.587 153.896" stroke="#1B1B1B"/>
<path d="M47.7289 403.511C70.2382 389.737 114.57 371.496 160.275 334.642C205.98 297.787 222.53 251.976 276.256 219.239C329.982 186.503 398.375 180.616 428.905 170.96" stroke="#1B1B1B"/>
<path d="M51.0476 420.575C73.5568 406.801 117.888 388.559 163.594 351.705C209.299 314.851 225.848 269.039 279.574 236.303C333.3 203.566 401.694 197.679 432.224 188.023" stroke="#1B1B1B"/>
<path d="M54.3657 437.639C76.8749 423.865 121.206 405.623 166.912 368.769C212.617 331.915 229.166 286.103 282.892 253.367C336.618 220.63 405.012 214.743 435.542 205.087" stroke="#1B1B1B"/>
</svg>
